<?xml version="1.0" encoding="UTF-8" standalone="no"?>
<!-- Created with Inkscape (http://www.inkscape.org/) -->

<svg
   xmlns:dc="http://purl.org/dc/elements/1.1/"
   xmlns:cc="http://creativecommons.org/ns#"
   xmlns:rdf="http://www.w3.org/1999/02/22-rdf-syntax-ns#"
   xmlns:svg="http://www.w3.org/2000/svg"
   xmlns="http://www.w3.org/2000/svg"
   xmlns:sodipodi="http://sodipodi.sourceforge.net/DTD/sodipodi-0.dtd"
   xmlns:inkscape="http://www.inkscape.org/namespaces/inkscape"
   width="80.168747mm"
   height="39.876614mm"
   viewBox="0 0 80.168747 39.876614"
   version="1.1"
   id="svg8"
   inkscape:version="0.92.3 (2405546, 2018-03-11)"
   sodipodi:docname="this.svg">
  <defs
     id="defs2" />
  <sodipodi:namedview
     id="base"
     pagecolor="#ffffff"
     bordercolor="#666666"
     borderopacity="1.0"
     inkscape:pageopacity="0.0"
     inkscape:pageshadow="2"
     inkscape:zoom="1.4142136"
     inkscape:cx="144.57913"
     inkscape:cy="63.832366"
     inkscape:document-units="px"
     inkscape:current-layer="layer1"
     showgrid="false"
     showborder="false"
     inkscape:object-nodes="true"
     inkscape:window-width="1920"
     inkscape:window-height="1057"
     inkscape:window-x="-8"
     inkscape:window-y="-8"
     inkscape:window-maximized="1"
     fit-margin-top="0"
     fit-margin-left="0"
     fit-margin-right="0"
     fit-margin-bottom="0" />
  <metadata
     id="metadata5">
    <rdf:RDF>
      <cc:Work
         rdf:about="">
        <dc:format>image/svg+xml</dc:format>
        <dc:type
           rdf:resource="http://purl.org/dc/dcmitype/StillImage" />
        <dc:title></dc:title>
      </cc:Work>
    </rdf:RDF>
  </metadata>
  <g
     inkscape:label="Layer 1"
     inkscape:groupmode="layer"
     id="layer1"
     transform="translate(-14.77049,-129.49601)">
    <path
       style="opacity:1;fill:#dfce9d;fill-opacity:1;stroke:none;stroke-width:0.83416885;stroke-linejoin:round;stroke-miterlimit:4;stroke-dasharray:none;stroke-dashoffset:0;stroke-opacity:1"
       d="m -72.493247,83.481208 c -0.14787,0 -0.267168,0.09149 -0.267168,0.20491 v 30.278442 c 4.37161,4.75659 14.065806,9.34699 28.310416,10.13614 28.064843,1.55478 31.296132,-20.44047 51.8583332,-10.13461 V 83.686118 c 0,-0.113412 -0.119298,-0.20491 -0.2671672,-0.20491 z"
       id="path823"
       inkscape:connector-curvature="0"
       sodipodi:nodetypes="sscscsss" />
    <path
       inkscape:connector-curvature="0"
       id="path821"
       d="m -72.493247,83.481208 c -0.14787,0 -0.267168,0.0877 -0.267168,0.19642 v 30.286932 c 4.37161,4.55951 12.710681,9.00865 28.575,8.42057 27.691539,-1.02648 31.031548,-18.29792 51.5937492,-8.41904 V 83.677628 c 0,-0.108713 -0.119298,-0.19642 -0.2671672,-0.19642 z"
       style="opacity:1;fill:#65cbda;fill-opacity:1;stroke:none;stroke-width:0.81670547;stroke-linejoin:round;stroke-miterlimit:4;stroke-dasharray:none;stroke-dashoffset:0;stroke-opacity:1" />
    <path
       style="opacity:1;fill:#236e95;fill-opacity:1;stroke:none;stroke-width:0.82061839;stroke-linejoin:round;stroke-miterlimit:4;stroke-dasharray:none;stroke-dashoffset:0;stroke-opacity:1"
       d="m -72.493247,80.835374 c -0.14787,0 -0.267168,0.08855 -0.267168,0.198307 v 30.577839 c 4.37161,4.6033 12.710681,9.09517 28.575,8.50146 27.691539,-1.03634 31.031548,-18.47369 51.5937484,-8.49992 V 81.033681 c 0,-0.109758 -0.119298,-0.198307 -0.2671673,-0.198307 z"
       id="rect815"
       inkscape:connector-curvature="0" />
    <path
       sodipodi:nodetypes="sscscsss"
       inkscape:connector-curvature="0"
       id="path825"
       d="m 20.11092,79.909333 c -0.14787,0 -0.267168,0.09149 -0.267168,0.20491 v 30.278437 c 4.37161,4.75659 11.888837,7.56965 25.75927,8.73298 28.009532,2.34918 33.847278,-19.03731 54.409478,-8.73145 V 80.114243 c 0,-0.113412 -0.1193,-0.20491 -0.26717,-0.20491 z"
       style="opacity:1;fill:#2b373e;fill-opacity:0.92462314;stroke:none;stroke-width:0.83416885;stroke-linejoin:round;stroke-miterlimit:4;stroke-dasharray:none;stroke-dashoffset:0;stroke-opacity:1" />
    <path
       style="opacity:1;fill:#65cbda;fill-opacity:1;stroke:none;stroke-width:0.81670547;stroke-linejoin:round;stroke-miterlimit:4;stroke-dasharray:none;stroke-dashoffset:0;stroke-opacity:1"
       d="m 20.11092,79.909333 c -0.14787,0 -0.267168,0.0877 -0.267168,0.19642 v 30.286927 c 4.37161,4.55951 12.710678,9.00865 28.574998,8.42057 27.69154,-1.02648 31.03155,-18.29792 51.59375,-8.41904 V 80.105753 c 0,-0.108713 -0.1193,-0.19642 -0.26717,-0.19642 z"
       id="path827"
       inkscape:connector-curvature="0" />
    <path
       inkscape:connector-curvature="0"
       id="path829"
       d="m 20.11092,77.263499 c -0.14787,0 -0.267168,0.08855 -0.267168,0.198307 v 30.577834 c 4.37161,4.6033 12.710678,9.09517 28.574998,8.50146 27.69154,-1.03634 31.03155,-18.473687 51.59375,-8.49992 V 77.461806 c 0,-0.109758 -0.1193,-0.198307 -0.26717,-0.198307 z"
       style="opacity:1;fill:#236e95;fill-opacity:0.93467335;stroke:none;stroke-width:0.82061839;stroke-linejoin:round;stroke-miterlimit:4;stroke-dasharray:none;stroke-dashoffset:0;stroke-opacity:1" />
    <path
       style="opacity:1;fill:#2b373e;fill-opacity:0.92462314;stroke:none;stroke-width:0.83416885;stroke-linejoin:round;stroke-miterlimit:4;stroke-dasharray:none;stroke-dashoffset:0;stroke-opacity:1"
       d="m 20.11092,79.909333 c -0.14787,0 -0.267168,0.09149 -0.267168,0.20491 v 30.278437 c 4.37161,4.75659 11.888837,7.56965 25.75927,8.73298 28.009532,2.34918 33.847278,-19.03731 54.409478,-8.73145 V 80.114243 c 0,-0.113412 -0.1193,-0.20491 -0.26717,-0.20491 z"
       inkscape:connector-curvature="0"
       sodipodi:nodetypes="sscscsss"
       id="path831" />
    <path
       inkscape:connector-curvature="0"
       d="m 20.11092,79.909333 c -0.14787,0 -0.267168,0.0877 -0.267168,0.19642 v 30.286927 c 4.37161,4.55951 12.710678,9.00865 28.574998,8.42057 27.69154,-1.02648 31.03155,-18.29792 51.59375,-8.41904 V 80.105753 c 0,-0.108713 -0.1193,-0.19642 -0.26717,-0.19642 z"
       style="opacity:1;fill:#65cbda;fill-opacity:1;stroke:none;stroke-width:0.81670547;stroke-linejoin:round;stroke-miterlimit:4;stroke-dasharray:none;stroke-dashoffset:0;stroke-opacity:1"
       id="path833" />
    <path
       style="opacity:1;fill:#236e95;fill-opacity:1;stroke:none;stroke-width:0.82061839;stroke-linejoin:round;stroke-miterlimit:4;stroke-dasharray:none;stroke-dashoffset:0;stroke-opacity:1"
       d="m 20.11092,77.263499 c -0.14787,0 -0.267168,0.08855 -0.267168,0.198307 v 30.577834 c 4.37161,4.6033 12.710678,9.09517 28.574998,8.50146 27.69154,-1.03634 31.03155,-18.473687 51.59375,-8.49992 V 77.461806 c 0,-0.109758 -0.1193,-0.198307 -0.26717,-0.198307 z"
       inkscape:connector-curvature="0"
       id="path835" />
    <path
       style="opacity:1;fill:#2b373e;fill-opacity:0.92462314;stroke:none;stroke-width:0.83416885;stroke-linejoin:round;stroke-miterlimit:4;stroke-dasharray:none;stroke-dashoffset:0;stroke-opacity:1"
       d="m 110.28766,80.28351 c -0.14787,0 -0.26717,0.09149 -0.26717,0.20491 v 30.27844 c 4.37161,4.75659 11.88884,7.56965 25.75927,8.73298 28.00953,2.34918 33.84728,-19.03731 54.40948,-8.73145 V 80.48842 c 0,-0.113412 -0.1193,-0.20491 -0.26717,-0.20491 z"
       inkscape:connector-curvature="0"
       sodipodi:nodetypes="sscscsss"
       id="path837" />
    <path
       inkscape:connector-curvature="0"
       d="m 110.28766,80.28351 c -0.14787,0 -0.26717,0.0877 -0.26717,0.19642 v 30.28693 c 4.37161,4.55951 12.71068,9.00865 28.575,8.42057 27.69154,-1.02648 31.03155,-18.29792 51.59375,-8.41904 V 80.47993 c 0,-0.108713 -0.1193,-0.19642 -0.26717,-0.19642 z"
       style="opacity:1;fill:#65cbda;fill-opacity:1;stroke:none;stroke-width:0.81670547;stroke-linejoin:round;stroke-miterlimit:4;stroke-dasharray:none;stroke-dashoffset:0;stroke-opacity:1"
       id="path839" />
    <path
       style="opacity:1;fill:#236e95;fill-opacity:0.93467335;stroke:none;stroke-width:0.82061839;stroke-linejoin:round;stroke-miterlimit:4;stroke-dasharray:none;stroke-dashoffset:0;stroke-opacity:1"
       d="m 110.28766,77.637676 c -0.14787,0 -0.26717,0.08855 -0.26717,0.198307 v 30.577837 c 4.37161,4.6033 12.71068,9.09517 28.575,8.50146 27.69154,-1.03634 31.03155,-18.47369 51.59375,-8.49992 V 77.835983 c 0,-0.109758 -0.1193,-0.198307 -0.26717,-0.198307 z"
       inkscape:connector-curvature="0"
       id="path841" />
    <path
       sodipodi:nodetypes="sscscsss"
       inkscape:connector-curvature="0"
       d="m 110.28766,80.28351 c -0.14787,0 -0.26717,0.09149 -0.26717,0.20491 v 30.27844 c 4.37161,4.75659 11.88884,7.56965 25.75927,8.73298 28.00953,2.34918 33.84728,-19.03731 54.40948,-8.73145 V 80.48842 c 0,-0.113412 -0.1193,-0.20491 -0.26717,-0.20491 z"
       style="opacity:1;fill:#1d5171;fill-opacity:1;stroke:none;stroke-width:0.83416885;stroke-linejoin:round;stroke-miterlimit:4;stroke-dasharray:none;stroke-dashoffset:0;stroke-opacity:1"
       id="path843" />
    <path
       style="opacity:1;fill:#65cbda;fill-opacity:1;stroke:none;stroke-width:0.81670547;stroke-linejoin:round;stroke-miterlimit:4;stroke-dasharray:none;stroke-dashoffset:0;stroke-opacity:1"
       d="m 110.28766,80.28351 c -0.14787,0 -0.26717,0.0877 -0.26717,0.19642 v 30.28693 c 4.37161,4.55951 12.71068,9.00865 28.575,8.42057 27.69154,-1.02648 31.03155,-18.29792 51.59375,-8.41904 V 80.47993 c 0,-0.108713 -0.1193,-0.19642 -0.26717,-0.19642 z"
       inkscape:connector-curvature="0"
       id="path845" />
    <path
       inkscape:connector-curvature="0"
       d="m 110.28766,77.637676 c -0.14787,0 -0.26717,0.08855 -0.26717,0.198307 v 30.577837 c 4.37161,4.6033 12.71068,9.09517 28.575,8.50146 27.69154,-1.03634 31.03155,-18.47369 51.59375,-8.49992 V 77.835983 c 0,-0.109758 -0.1193,-0.198307 -0.26717,-0.198307 z"
       style="opacity:1;fill:#236e95;fill-opacity:1;stroke:none;stroke-width:0.82061839;stroke-linejoin:round;stroke-miterlimit:4;stroke-dasharray:none;stroke-dashoffset:0;stroke-opacity:1"
       id="path847" />
    <path
       id="path849"
       sodipodi:nodetypes="sscscsss"
       inkscape:connector-curvature="0"
       d="m -74.391507,132.40643 c -0.14787,0 -0.26717,0.0915 -0.26717,0.20491 v 27.9254 c 4.37161,4.75659 11.88884,9.92269 25.75927,11.08602 28.00953,2.34918 33.84728,-19.03731 54.4094798,-8.73145 v -30.27997 c 0,-0.11342 -0.1193,-0.20491 -0.26717,-0.20491 z"
       style="opacity:1;fill:#2b373e;fill-opacity:0.92462314;stroke:none;stroke-width:0.83416885;stroke-linejoin:round;stroke-miterlimit:4;stroke-dasharray:none;stroke-dashoffset:0;stroke-opacity:1" />
    <path
       id="path853"
       inkscape:connector-curvature="0"
       d="m -74.391507,129.76059 c -0.14787,0 -0.26717,0.0885 -0.26717,0.19831 v 30.57784 c 4.37161,4.6033 12.71068,9.09517 28.575,8.50146 27.69154,-1.03634 31.03155,-18.47369 51.5937498,-8.49992 V 129.9589 c 0,-0.10976 -0.1193,-0.19831 -0.26717,-0.19831 z"
       style="opacity:1;fill:#236e95;fill-opacity:0.93467335;stroke:none;stroke-width:0.82061839;stroke-linejoin:round;stroke-miterlimit:4;stroke-dasharray:none;stroke-dashoffset:0;stroke-opacity:1" />
    <path
       id="path855"
       style="opacity:1;fill:#1d5171;fill-opacity:1;stroke:none;stroke-width:0.83416885;stroke-linejoin:round;stroke-miterlimit:4;stroke-dasharray:none;stroke-dashoffset:0;stroke-opacity:1"
       d="m -74.391507,132.40643 c -0.14787,0 -0.26717,0.0915 -0.26717,0.20491 v 27.9254 c 4.37161,4.75659 11.88884,9.92269 25.75927,11.08602 28.00953,2.34918 33.84728,-19.03731 54.4094798,-8.73145 v -30.27997 c 0,-0.11342 -0.1193,-0.20491 -0.26717,-0.20491 z"
       inkscape:connector-curvature="0"
       sodipodi:nodetypes="sscscsss" />
    <path
       id="path857"
       inkscape:connector-curvature="0"
       d="m -74.391507,132.40643 c -0.14787,0 -0.26717,0.0877 -0.26717,0.19642 v 27.93389 c 4.37161,4.55951 12.71068,11.36169 28.575,10.77361 27.69154,-1.02648 31.03155,-18.29792 51.5937498,-8.41904 v -30.28846 c 0,-0.10872 -0.1193,-0.19642 -0.26717,-0.19642 z"
       style="opacity:1;fill:#65cbda;fill-opacity:1;stroke:none;stroke-width:0.81670547;stroke-linejoin:round;stroke-miterlimit:4;stroke-dasharray:none;stroke-dashoffset:0;stroke-opacity:1"
       sodipodi:nodetypes="sscscsss" />
    <path
       id="path859"
       style="opacity:1;fill:#236e95;fill-opacity:1;stroke:none;stroke-width:0.82061839;stroke-linejoin:round;stroke-miterlimit:4;stroke-dasharray:none;stroke-dashoffset:0;stroke-opacity:1"
       d="m -74.391507,129.76059 c -0.14787,0 -0.26717,0.0885 -0.26717,0.19831 v 30.57784 c 4.37161,4.6033 12.71068,9.09517 28.575,8.50146 27.69154,-1.03634 31.03155,-18.47369 51.5937498,-8.49992 V 129.9589 c 0,-0.10976 -0.1193,-0.19831 -0.26717,-0.19831 z"
       inkscape:connector-curvature="0" />
    <path
       style="opacity:1;fill:#236e95;fill-opacity:0.93467335;stroke:none;stroke-width:0.82061839;stroke-linejoin:round;stroke-miterlimit:4;stroke-dasharray:none;stroke-dashoffset:0;stroke-opacity:1"
       d="m 15.03766,129.49601 c -0.14787,0 -0.26717,0.0885 -0.26717,0.19831 v 30.57784 c 4.37161,4.6033 12.71068,9.09517 28.575,8.50146 27.69154,-1.03634 31.03155,-18.47369 51.59375,-8.49992 v -30.57938 c 0,-0.10976 -0.1193,-0.19831 -0.26717,-0.19831 z"
       inkscape:connector-curvature="0"
       id="path872" />
    <path
       sodipodi:nodetypes="sscscsss"
       style="opacity:1;fill:#65cbda;fill-opacity:1;stroke:none;stroke-width:0.81670547;stroke-linejoin:round;stroke-miterlimit:4;stroke-dasharray:none;stroke-dashoffset:0;stroke-opacity:1"
       d="m 15.03766,132.14185 c -0.14787,0 -0.26717,0.0877 -0.26717,0.19642 v 27.93389 c 4.37161,4.55951 14.29818,9.6419 30.1625,9.05382 27.69154,-1.02648 29.44405,-16.57813 50.00625,-6.69925 v -30.28846 c 0,-0.10872 -0.1193,-0.19642 -0.26717,-0.19642 z"
       inkscape:connector-curvature="0"
       id="path876" />
    <path
       inkscape:connector-curvature="0"
       d="m 15.03766,129.49601 c -0.14787,0 -0.26717,0.0885 -0.26717,0.19831 v 30.57784 c 4.37161,4.6033 12.71068,9.09517 28.575,8.50146 27.69154,-1.03634 31.03155,-18.47369 51.59375,-8.49992 v -30.57938 c 0,-0.10976 -0.1193,-0.19831 -0.26717,-0.19831 z"
       style="opacity:1;fill:#236e95;fill-opacity:1;stroke:none;stroke-width:0.82061839;stroke-linejoin:round;stroke-miterlimit:4;stroke-dasharray:none;stroke-dashoffset:0;stroke-opacity:1"
       id="path878" />
    <path
       id="path907"
       inkscape:connector-curvature="0"
       d="m 104.46683,130.81893 c -0.14787,0 -0.26717,0.0885 -0.26717,0.19831 v 30.57784 c 4.37161,4.6033 12.71068,9.09517 28.575,8.50146 27.69154,-1.03634 31.03155,-18.47369 51.59375,-8.49992 v -30.57938 c 0,-0.10976 -0.1193,-0.19831 -0.26717,-0.19831 z"
       style="opacity:1;fill:#236e95;fill-opacity:0.93467335;stroke:none;stroke-width:0.82061839;stroke-linejoin:round;stroke-miterlimit:4;stroke-dasharray:none;stroke-dashoffset:0;stroke-opacity:1" />
    <path
       id="path909"
       inkscape:connector-curvature="0"
       d="m 104.46683,133.46477 c -0.14787,0 -0.26717,0.0877 -0.26717,0.19642 v 31.40655 c -0.12056,-0.10732 12.71068,7.88903 28.575,7.30095 27.69154,-1.02651 31.03155,-18.29792 51.59375,-8.41904 v -30.28846 c 0,-0.10872 -0.1193,-0.19642 -0.26717,-0.19642 z"
       style="opacity:1;fill:#65cbda;fill-opacity:1;stroke:none;stroke-width:0.81670547;stroke-linejoin:round;stroke-miterlimit:4;stroke-dasharray:none;stroke-dashoffset:0;stroke-opacity:1"
       sodipodi:nodetypes="sscscsss" />
    <path
       id="path911"
       style="opacity:1;fill:#236e95;fill-opacity:1;stroke:none;stroke-width:0.82061839;stroke-linejoin:round;stroke-miterlimit:4;stroke-dasharray:none;stroke-dashoffset:0;stroke-opacity:1"
       d="m 104.46683,130.81893 c -0.14787,0 -0.26717,0.0885 -0.26717,0.19831 v 30.57784 c 4.37161,4.6033 12.71068,9.09517 28.575,8.50146 27.69154,-1.03634 31.03155,-18.47369 51.59375,-8.49992 v -30.57938 c 0,-0.10976 -0.1193,-0.19831 -0.26717,-0.19831 z"
       inkscape:connector-curvature="0" />
    <path
       style="opacity:1;fill:#65cbda;fill-opacity:1;stroke:none;stroke-width:0.81670547;stroke-linejoin:round;stroke-miterlimit:4;stroke-dasharray:none;stroke-dashoffset:0;stroke-opacity:1"
       d="m -77.52033,184.28746 c -0.14787,0 -0.267168,0.0877 -0.267168,0.19642 v 30.28693 c 4.37161,4.55951 12.710681,9.00865 28.575,8.42057 27.691539,-1.02648 31.031548,-18.29792 51.5937489,-8.41904 v -30.28846 c 0,-0.10871 -0.119298,-0.19642 -0.2671672,-0.19642 z"
       id="path915"
       inkscape:connector-curvature="0" />
    <path
       inkscape:connector-curvature="0"
       id="path917"
       d="m -77.52033,181.64162 c -0.14787,0 -0.267168,0.0885 -0.267168,0.19831 v 30.57784 c 4.37161,4.6033 12.710681,9.09517 28.575,8.50146 27.691539,-1.03634 31.031548,-18.47369 51.5937481,-8.49992 v -30.57938 c 0,-0.10976 -0.119298,-0.19831 -0.2671673,-0.19831 z"
       style="opacity:1;fill:#236e95;fill-opacity:1;stroke:none;stroke-width:0.82061839;stroke-linejoin:round;stroke-miterlimit:4;stroke-dasharray:none;stroke-dashoffset:0;stroke-opacity:1" />
  </g>
</svg>
